<svg width="136" height="39" viewBox="0 0 136 39" fill="none" xmlns="http://www.w3.org/2000/svg">
<path d="M45.2508 13.5255H50.5784C53.5291 13.5255 55.0613 14.7354 55.0613 17.0081V17.1209C55.1035 17.7866 54.9053 18.4453 54.5028 18.9773C54.1004 19.5092 53.5203 19.879 52.8682 20.0194C53.6493 20.0882 54.3716 20.4624 54.8785 21.0606C55.3853 21.6589 55.6356 22.4329 55.5752 23.2147V23.2934C55.5752 25.7737 53.9472 27.0803 50.8221 27.0803H45.2508V13.5255ZM50.0816 19.0883C51.5617 19.0883 52.1448 18.5574 52.1448 17.3475V17.2688C52.1448 16.1367 51.501 15.6238 50.0646 15.6238H48.2451V19.1054L50.0816 19.0883ZM50.3433 24.9479C51.8575 24.9479 52.5459 24.2595 52.5459 23.0326V22.9539C52.5459 21.6995 51.8575 21.0643 50.1944 21.0643H48.2451V24.9564L50.3433 24.9479ZM56.3764 24.3211C56.3764 22.0048 58.4907 21.1344 61.5296 21.1344H62.6436V20.7419C62.6436 19.5671 62.2871 18.9224 61.0337 18.9224C60.8307 18.8984 60.625 18.9162 60.4291 18.9746C60.2333 19.0331 60.0515 19.131 59.8949 19.2624C59.7383 19.3938 59.6103 19.5558 59.5187 19.7385C59.427 19.9211 59.3737 20.1207 59.3621 20.3247H56.7499C56.9244 17.9733 58.779 16.9294 61.2072 16.9294C63.6363 16.9294 65.3506 17.9126 65.3506 20.6035V27.0622H62.6797V25.8695C62.3443 26.3421 61.8922 26.7196 61.3674 26.9654C60.8427 27.2112 60.2631 27.3167 59.6854 27.2718C57.8915 27.2718 56.3764 26.4014 56.3764 24.3202V24.3211ZM62.6436 23.5977V22.7273H61.5817C59.9888 22.7273 59.0663 23.0753 59.0663 24.1287C59.0663 24.8512 59.5015 25.3214 60.5027 25.3214C61.7126 25.3565 62.6436 24.6947 62.6436 23.5977ZM66.5092 23.9542H69.0692C69.1821 24.8256 69.6173 25.3565 70.81 25.3565C71.872 25.3565 72.3678 24.9649 72.3678 24.2766C72.3678 23.5892 71.7762 23.3104 70.3578 23.1104C67.7456 22.7102 66.7008 21.9527 66.7008 20.0194C66.7008 18.0871 68.5989 16.9294 70.6185 16.9294C72.8201 16.9294 74.4661 17.7306 74.7098 20.0023H72.1934C72.0455 19.1841 71.5847 18.8096 70.6441 18.8096C69.7045 18.8096 69.2427 19.2267 69.2427 19.8279C69.2427 20.429 69.713 20.6992 71.1485 20.9078C73.6298 21.2643 74.9971 21.891 74.9971 24.0158C74.9971 26.1397 73.4478 27.2718 70.8271 27.2718C68.2064 27.2718 66.605 26.0951 66.5092 23.9542ZM75.7025 22.2314V22.0826C75.6698 21.4024 75.7786 20.7229 76.022 20.087C76.2655 19.451 76.6384 18.8726 77.1169 18.3882C77.5955 17.9038 78.1695 17.524 78.8024 17.2729C79.4354 17.0218 80.1135 16.9048 80.794 16.9294C83.354 16.9294 85.6258 18.4275 85.6258 21.9697V22.7273H78.5147C78.5839 24.3723 79.4799 25.3385 80.9685 25.3385C82.239 25.3385 82.8667 24.7905 83.0411 23.9542H85.6523C85.33 26.097 83.6233 27.2889 80.9163 27.2889C77.8785 27.2718 75.7025 25.4001 75.7025 22.2314ZM82.9539 21.0387C82.8667 19.5406 82.1006 18.8617 80.795 18.8617C80.207 18.859 79.6408 19.0843 79.2154 19.4902C78.79 19.8961 78.5385 20.4512 78.5137 21.0387H82.9539ZM86.3492 22.2314V22.0826C86.3162 21.4007 86.4254 20.7195 86.67 20.0821C86.9145 19.4448 87.2891 18.8654 87.7698 18.3807C88.2505 17.896 88.8268 17.5166 89.4621 17.2668C90.0973 17.0169 90.7777 16.902 91.4598 16.9294C93.7571 16.9294 95.8724 17.9306 96.1246 20.777H93.5134C93.4959 20.5327 93.4295 20.2944 93.3182 20.0763C93.2069 19.8581 93.0528 19.6646 92.8653 19.5071C92.6777 19.3496 92.4604 19.2314 92.2263 19.1594C91.9922 19.0875 91.746 19.0633 91.5024 19.0883C90.083 19.0883 89.1349 20.1502 89.1349 22.0484V22.1963C89.1349 24.1894 90.0053 25.2086 91.5631 25.2086C91.8282 25.2239 92.0938 25.1863 92.3443 25.098C92.5947 25.0097 92.8251 24.8724 93.022 24.6941C93.2189 24.5159 93.3783 24.3002 93.491 24.0597C93.6037 23.8192 93.6674 23.5587 93.6784 23.2934H96.1597C96.0118 25.6438 94.3051 27.2718 91.4237 27.2718C88.5423 27.2718 86.3492 25.4694 86.3492 22.2314ZM96.795 24.3211C96.795 22.0048 98.9103 21.1344 101.941 21.1344H103.063V20.7419C103.063 19.5671 102.697 18.9224 101.453 18.9224C101.249 18.8957 101.041 18.9115 100.843 18.9688C100.645 19.026 100.461 19.1235 100.303 19.2551C100.144 19.3867 100.014 19.5497 99.9216 19.7337C99.8288 19.9177 99.7751 20.1189 99.7636 20.3247H97.1524C97.3259 17.9733 99.1815 16.9294 101.601 16.9294C104.021 16.9294 105.753 17.9126 105.753 20.6035V27.0622H103.08V25.8695C102.745 26.3425 102.293 26.7204 101.768 26.9662C101.243 27.212 100.664 27.3173 100.086 27.2718C98.3452 27.2718 96.7959 26.4014 96.7959 24.3202L96.795 24.3211ZM103.063 23.5977V22.7273H102.018C100.425 22.7273 99.4944 23.0753 99.4944 24.1287C99.4944 24.8512 99.9381 25.3214 100.939 25.3214C102.166 25.3565 103.098 24.6947 103.098 23.5977H103.063ZM107.685 17.1209H110.428V18.6361C110.727 18.0974 111.167 17.6506 111.701 17.3436C112.235 17.0367 112.842 16.8813 113.458 16.8943C114.045 16.8478 114.632 16.9922 115.131 17.306C115.63 17.6198 116.014 18.0863 116.226 18.6361C116.592 18.0899 117.089 17.6443 117.671 17.3402C118.253 17.036 118.903 16.883 119.56 16.8953C121.397 16.8953 122.816 18.052 122.816 20.6812V27.0272H120.091V21.0216C120.091 19.7511 119.525 19.185 118.533 19.185C118.269 19.1739 118.006 19.2198 117.761 19.3196C117.517 19.4194 117.296 19.5707 117.115 19.7632C116.935 19.9557 116.797 20.185 116.713 20.4353C116.628 20.6857 116.599 20.9513 116.626 21.2141V27.0641H113.893V21.0216C113.893 19.7511 113.31 19.185 112.344 19.185C111.945 19.1662 111.551 19.2776 111.221 19.5025C110.891 19.7275 110.643 20.0537 110.515 20.4318C110.429 20.6829 110.4 20.9495 110.428 21.2131V27.0632H107.685V17.1209ZM124.696 17.1209H127.447V18.6787C127.775 18.1339 128.238 17.6833 128.792 17.3706C129.346 17.0579 129.971 16.8938 130.607 16.8943C133.036 16.8943 134.96 18.6958 134.96 21.9697V22.1262C134.96 25.4001 133.105 27.2367 130.607 27.2367C129.971 27.2631 129.341 27.1148 128.784 26.8079C128.226 26.501 127.764 26.0472 127.447 25.4959V30.4405H124.696V17.1209ZM132.139 21.9868C132.139 19.9853 131.156 19.0011 129.772 19.0011C128.387 19.0011 127.351 20.0023 127.351 21.9878V22.1442C127.351 24.1287 128.3 25.0948 129.797 25.0948C131.295 25.0948 132.139 24.0851 132.139 22.1783V21.9868ZM25.1501 6.05981C33.7782 6.05981 39.5761 16.0324 40.2986 26.8593C40.3176 27.1561 40.2484 27.4529 40.0976 27.7089C37.1204 32.7815 30.5583 33.8974 25.1766 33.9268C19.9741 34.0217 15.0314 31.8523 11.5119 27.9526C11.3295 27.7503 11.2062 27.5019 11.1556 27.2343C11.1049 26.9668 11.1288 26.6904 11.2246 26.4355C11.7455 25.088 12.351 23.7747 13.0375 22.5035C14.0349 20.6755 15.5444 18.0653 17.9242 17.9875C20.1457 17.9875 21.2579 20.0488 22.7731 21.324C24.3214 19.7387 25.1927 17.5883 26.1551 15.6219C26.3218 15.2652 26.6234 14.9893 26.9935 14.855C27.3636 14.7206 27.772 14.7388 28.1287 14.9056C28.4854 15.0723 28.7612 15.3739 28.8956 15.744C29.0299 16.1141 29.0117 16.5224 28.845 16.8791C28.0059 18.6133 27.1251 20.3408 26.0442 21.9385C24.9329 23.5806 24.0787 24.4378 22.8868 24.4378C22.1795 24.4378 21.5736 24.1609 20.9621 23.6783C19.9163 22.806 19.1255 21.6986 17.9754 20.9543C16.4897 21.6986 15.1405 24.8218 14.3497 26.6242C17.123 29.3549 20.89 30.9383 24.7869 30.9601C29.1693 30.9335 34.5396 30.4955 37.2996 26.5796C36.7544 19.8374 33.4947 9.15552 25.1501 9.02941C18.4211 9.02941 14.0055 13.8147 11.1412 21.9659C11.0107 22.3372 10.738 22.6415 10.3832 22.8117C10.0284 22.982 9.62043 23.0043 9.24914 22.8738C8.87786 22.7433 8.57362 22.4706 8.40337 22.1158C8.23311 21.761 8.21078 21.3531 8.34129 20.9818C11.5754 11.7762 16.849 6.05981 25.1501 6.05981Z" fill="#283C46"/>
</svg>
