<svg width="30" height="30" viewBox="0 0 30 30" fill="none" xmlns="http://www.w3.org/2000/svg">
<g clip-path="url(#clip0_201_1534)">
<path fill-rule="evenodd" clip-rule="evenodd" d="M15 28C22.18 28 28 22.18 28 15C28 7.82 22.18 2 15 2C7.82 2 2 7.82 2 15C2 22.18 7.82 28 15 28ZM15 30C23.284 30 30 23.284 30 15C30 6.716 23.284 0 15 0C6.716 0 0 6.716 0 15C0 23.284 6.716 30 15 30Z" fill="#725EAD"/>
<path d="M13.515 17.753H15.84V17.113C15.84 15.979 16.255 15.373 17.704 14.519C19.186 13.631 20.062 12.407 20.062 10.678V10.666C20.062 8.252 18.052 6.5 15.099 6.5C11.842 6.5 10.157 8.432 10.011 10.846L10 10.981H12.325L12.335 10.88C12.459 9.51 13.425 8.566 14.975 8.566C16.502 8.566 17.513 9.487 17.513 10.768V10.778C17.513 11.924 17.03 12.576 15.671 13.395C14.133 14.316 13.471 15.327 13.504 16.855L13.515 17.753ZM14.695 22.963C15.537 22.963 16.177 22.323 16.177 21.503C16.177 20.684 15.537 20.055 14.694 20.055C13.874 20.055 13.224 20.685 13.224 21.504C13.224 22.324 13.874 22.964 14.694 22.964L14.695 22.963Z" fill="#725EAD"/>
</g>
<defs>
<clipPath id="clip0_201_1534">
<rect width="30" height="30" fill="white"/>
</clipPath>
</defs>
</svg>
