<svg width="21" height="20" viewBox="0 0 21 20" fill="none" xmlns="http://www.w3.org/2000/svg">
<path fill-rule="evenodd" clip-rule="evenodd" d="M10.578 16.6667C12.3461 16.6667 14.0418 15.9644 15.292 14.7141C16.5422 13.4639 17.2446 11.7682 17.2446 10.0001C17.2446 8.23197 16.5422 6.53628 15.292 5.28604C14.0418 4.03579 12.3461 3.33341 10.578 3.33341C8.80985 3.33341 7.11416 4.03579 5.86392 5.28604C4.61367 6.53628 3.9113 8.23197 3.9113 10.0001C3.9113 11.7682 4.61367 13.4639 5.86392 14.7141C7.11416 15.9644 8.80985 16.6667 10.578 16.6667ZM10.578 18.3334C15.1805 18.3334 18.9113 14.6026 18.9113 10.0001C18.9113 5.39758 15.1805 1.66675 10.578 1.66675C5.97546 1.66675 2.24463 5.39758 2.24463 10.0001C2.24463 14.6026 5.97546 18.3334 10.578 18.3334Z" fill="#283C46"/>
<path d="M8.91162 8.75C8.91162 9.08152 8.77993 9.39946 8.5455 9.63388C8.31108 9.8683 7.99314 10 7.66162 10C7.3301 10 7.01216 9.8683 6.77774 9.63388C6.54332 9.39946 6.41162 9.08152 6.41162 8.75C6.41162 8.41848 6.54332 8.10054 6.77774 7.86612C7.01216 7.6317 7.3301 7.5 7.66162 7.5C7.99314 7.5 8.31108 7.6317 8.5455 7.86612C8.77993 8.10054 8.91162 8.41848 8.91162 8.75ZM14.745 8.75C14.745 9.08152 14.6133 9.39946 14.3788 9.63388C14.1444 9.8683 13.8265 10 13.495 10C13.1634 10 12.8455 9.8683 12.6111 9.63388C12.3767 9.39946 12.245 9.08152 12.245 8.75C12.245 8.41848 12.3767 8.10054 12.6111 7.86612C12.8455 7.6317 13.1634 7.5 13.495 7.5C13.8265 7.5 14.1444 7.6317 14.3788 7.86612C14.6133 8.10054 14.745 8.41848 14.745 8.75Z" fill="#283C46"/>
<path fill-rule="evenodd" clip-rule="evenodd" d="M8.07812 12.55L8.73313 11.895C9.97896 13.1409 11.6515 13.6017 12.7423 11.9659L13.5131 12.4792C12.0223 14.7142 9.75312 14.2242 8.07812 12.55Z" fill="#283C46"/>
</svg>
