<svg width="21" height="20" viewBox="0 0 21 20" fill="none" xmlns="http://www.w3.org/2000/svg">
<path fill-rule="evenodd" clip-rule="evenodd" d="M6.87744 4.99992C6.87744 4.55789 7.05304 4.13397 7.3656 3.82141C7.67816 3.50885 8.10208 3.33325 8.54411 3.33325H16.8774C17.3195 3.33325 17.7434 3.50885 18.056 3.82141C18.3685 4.13397 18.5441 4.55789 18.5441 4.99992C18.5441 5.44195 18.3685 5.86587 18.056 6.17843C17.7434 6.49099 17.3195 6.66659 16.8774 6.66659H8.54411C8.10208 6.66659 7.67816 6.49099 7.3656 6.17843C7.05304 5.86587 6.87744 5.44195 6.87744 4.99992ZM1.87744 9.99992C1.87744 9.55789 2.05304 9.13397 2.3656 8.82141C2.67816 8.50885 3.10208 8.33325 3.54411 8.33325H11.8774C12.3195 8.33325 12.7434 8.50885 13.056 8.82141C13.3685 9.13397 13.5441 9.55789 13.5441 9.99992C13.5441 10.4419 13.3685 10.8659 13.056 11.1784C12.7434 11.491 12.3195 11.6666 11.8774 11.6666H3.54411C3.10208 11.6666 2.67816 11.491 2.3656 11.1784C2.05304 10.8659 1.87744 10.4419 1.87744 9.99992ZM6.04411 13.3333C5.60208 13.3333 5.17816 13.5088 4.8656 13.8214C4.55304 14.134 4.37744 14.5579 4.37744 14.9999C4.37744 15.4419 4.55304 15.8659 4.8656 16.1784C5.17816 16.491 5.60208 16.6666 6.04411 16.6666H14.3774C14.8195 16.6666 15.2434 16.491 15.556 16.1784C15.8685 15.8659 16.0441 15.4419 16.0441 14.9999C16.0441 14.5579 15.8685 14.134 15.556 13.8214C15.2434 13.5088 14.8195 13.3333 14.3774 13.3333H6.04411Z" fill="#283C46"/>
</svg>
