<svg width="21" height="20" viewBox="0 0 21 20" fill="none" xmlns="http://www.w3.org/2000/svg">
<g clip-path="url(#clip0_201_1824)">
<path opacity="0.9" d="M5.58554 3.13333H15.2422L17.7114 10.0725L18.2114 11.48H12.7889C12.7872 11.4917 12.7839 11.5017 12.783 11.5133C12.753 11.7908 12.688 12.055 12.5789 12.2967C12.1939 13.1475 11.373 13.7408 10.413 13.7408C9.45471 13.7408 8.63388 13.1475 8.24888 12.2967C8.13992 12.048 8.07101 11.7836 8.04471 11.5133C8.04388 11.5017 8.03971 11.4917 8.03804 11.48H2.61554L3.11638 10.0725L5.58554 3.13333ZM19.5572 11.2458C19.5547 11.2308 19.5505 11.2158 19.5472 11.2017C19.533 11.1342 19.5247 11.0658 19.5014 11L16.5322 2.6275C16.3322 2.0625 15.8172 1.6875 15.243 1.6875H5.58388C5.00971 1.6875 4.49554 2.0625 4.29471 2.6275L1.32638 11C1.30304 11.0667 1.29471 11.135 1.28054 11.2025L1.27054 11.245C1.25721 11.3133 1.25388 11.3842 1.24971 11.4533C1.24804 11.5167 1.24471 11.5783 1.24971 11.64C1.25221 11.6692 1.25721 11.6967 1.26054 11.7258C1.26638 11.775 1.26638 11.8242 1.27721 11.8733L2.48888 17.2417C2.63638 17.8925 3.19054 18.3533 3.82804 18.3533H16.9972C17.6355 18.3533 18.1889 17.8925 18.3372 17.2417L19.5497 11.8725C19.5605 11.8225 19.5605 11.7742 19.5664 11.725C19.5697 11.6958 19.5747 11.6683 19.5764 11.6392C19.5822 11.5775 19.5789 11.5142 19.5772 11.4533C19.5754 11.3835 19.5684 11.3138 19.5564 11.245L19.5572 11.2458Z" fill="#283C46"/>
<rect x="12.5" y="-0.5" width="7" height="7" rx="3.5" fill="#FF5400"/>
<rect x="12.5" y="-0.5" width="7" height="7" rx="3.5" stroke="#FFFCF9"/>
</g>
<defs>
<clipPath id="clip0_201_1824">
<rect width="20" height="20" fill="white" transform="translate(0.414062)"/>
</clipPath>
</defs>
</svg>
