<svg width="21" height="20" viewBox="0 0 21 20" fill="none" xmlns="http://www.w3.org/2000/svg">
<path opacity="0.9" d="M17.885 6.64258C18.815 6.64258 19.745 7.55925 19.745 8.60758V14.2384C19.745 15.2859 18.9483 16.0717 17.885 16.0717V18.6059C17.885 18.7209 17.851 18.8333 17.7873 18.9291C17.7236 19.0248 17.6331 19.0996 17.527 19.144C17.421 19.1884 17.3042 19.2005 17.1913 19.1788C17.0784 19.157 16.9744 19.1024 16.8925 19.0217L13.8991 16.0717H8.45329C7.39079 16.0717 6.59329 15.2859 6.59329 14.1076V13.8451L8.05495 12.2742H14.2991C15.3616 12.2742 16.1591 11.4884 16.1591 10.4409V6.64175H17.8858L17.885 6.64258ZM7.25662 10.9642L4.26495 13.9142C4.18309 13.9951 4.07914 14.05 3.96617 14.0719C3.8532 14.0939 3.73627 14.0819 3.63008 14.0376C3.5239 13.9932 3.43321 13.9184 3.36942 13.8226C3.30564 13.7268 3.27161 13.6143 3.27162 13.4992V10.9642C2.20912 10.9642 1.41162 10.1784 1.41162 9.13091V3.50008C1.41162 2.45258 2.34162 1.66675 3.27162 1.66675H12.7033C13.7658 1.66675 14.5633 2.45258 14.5633 3.50008V9.13091C14.5633 10.1784 13.7658 10.9642 12.7033 10.9642H7.25662Z" fill="#283C46"/>
</svg>
