<svg width="21" height="20" viewBox="0 0 21 20" fill="none" xmlns="http://www.w3.org/2000/svg">
<path fill-rule="evenodd" clip-rule="evenodd" d="M15.8756 8.56842C15.8745 7.66085 15.6946 6.76238 15.3463 5.92433C14.9979 5.08628 14.4878 4.32506 13.8452 3.68416C13.2026 3.04326 12.4401 2.53523 11.6011 2.18908C10.7621 1.84293 9.86317 1.66544 8.9556 1.66676C7.86065 1.66573 6.7811 1.9246 5.80571 2.4221C4.83031 2.91959 3.98692 3.6415 3.34489 4.52845C2.70286 5.41541 2.28053 6.4421 2.1126 7.52409C1.94468 8.60608 2.03598 9.71247 2.37897 10.7523C2.72197 11.7921 3.30688 12.7357 4.08561 13.5054C4.86434 14.2752 5.81465 14.8491 6.85839 15.18C7.90214 15.5108 9.00953 15.5893 10.0895 15.4088C11.1695 15.2283 12.1912 14.7941 13.0706 14.1418L16.2323 17.8776C16.3664 18.0345 16.533 18.1605 16.7205 18.2469C16.908 18.3333 17.1121 18.378 17.3185 18.378C17.525 18.378 17.729 18.3333 17.9165 18.2469C18.104 18.1605 18.2706 18.0345 18.4048 17.8776C18.5266 17.7349 18.619 17.5695 18.6769 17.391C18.7348 17.2125 18.7569 17.0244 18.7421 16.8374C18.7272 16.6503 18.6756 16.468 18.5903 16.3009C18.505 16.1338 18.3876 15.9851 18.2448 15.8634L14.5089 12.7043C15.3987 11.5091 15.8781 10.0584 15.8756 8.56842ZM14.0198 8.54175C14.0198 9.89734 13.4813 11.1974 12.5227 12.156C11.5642 13.1145 10.2641 13.653 8.90851 13.653C7.55292 13.653 6.25286 13.1145 5.29431 12.156C4.33577 11.1974 3.79726 9.89734 3.79726 8.54175C3.79726 7.18617 4.33577 5.8861 5.29431 4.92756C6.25286 3.96901 7.55292 3.4305 8.90851 3.4305C10.2641 3.4305 11.5642 3.96901 12.5227 4.92756C13.4813 5.8861 14.0198 7.18617 14.0198 8.54175Z" fill="#283C46"/>
</svg>
