<svg width="21" height="20" viewBox="0 0 21 20" fill="none" xmlns="http://www.w3.org/2000/svg">
<g clip-path="url(#clip0_201_1837)">
<path d="M10.2684 18.0833L16.4351 19.1666H16.6017C16.7684 19.1666 16.8517 19.0833 16.9351 19L18.7684 17.1666C19.0184 17 19.0184 16.5 18.7684 16.3333C18.6017 16.0833 18.1017 16.0833 17.9351 16.3333L17.6851 16.6666L19.0184 10.75L19.8517 9.74997C20.0184 9.66664 20.1017 9.49997 20.0184 9.16664C19.9351 8.91664 19.8517 8.74997 19.6851 8.66664C19.5184 8.5833 19.2684 8.66664 19.1017 8.8333L18.7684 9.16664L13.6851 1.0833C13.5184 0.833304 13.0184 0.666637 12.7684 0.916637L7.93506 3.8333C7.85172 3.91664 7.76839 3.91664 7.68506 3.99997L1.60173 14.5L1.10173 13.6666C1.01839 13.5 0.851725 13.25 0.685059 13.25C0.518392 13.25 0.268392 13.3333 0.185059 13.5C0.101725 13.8333 0.101725 14 0.185059 14.1666L1.10173 16V16.0833C1.18506 16.1666 1.18506 16.25 1.35173 16.3333C1.43506 16.4166 1.51839 16.4166 1.60173 16.4166L5.85172 17.1666L8.18506 9.8333L10.2684 18.0833ZM9.18506 4.66664L12.9351 2.49997L17.6851 10.1666L17.6017 10.75L16.2684 16.5833L11.2684 8.16664L9.18506 4.66664Z" fill="#283C46"/>
</g>
<defs>
<clipPath id="clip0_201_1837">
<rect width="20" height="20" fill="white" transform="translate(0.101562)"/>
</clipPath>
</defs>
</svg>
